<?xml version="1.0"?>
<svg xmlns="http://www.w3.org/2000/svg" viewBox="0 0 80 80" width="480px" height="480px">
    <path style="line-height:normal;text-indent:0;text-align:start;text-decoration-line:none;text-decoration-style:solid;text-decoration-color:#000;text-transform:none;block-progression:tb;isolation:auto;mix-blend-mode:normal" d="M 47.015625 8 C 42.604679 8 38.807912 9.3634518 36.142578 12.041016 C 33.477244 14.718579 32 18.653973 32 23.568359 L 32 31 L 22 31 L 22 44 L 32 44 L 32 72 L 45 72 L 45 71 L 45 44 L 54.833984 44 L 57.197266 31 L 45 31 L 45 24.660156 C 45 22.930976 45.277336 21.794559 45.873047 21.123047 C 46.468758 20.451534 47.541063 20.003906 49.683594 20.003906 L 56 20 L 56 8.5585938 L 55.130859 8.4433594 C 54.062609 8.3016311 51.09624 8 47.015625 8 z M 47.015625 10 C 50.5564 10 52.775965 10.23774 54 10.378906 L 54 18 L 49.681641 18.003906 C 47.249315 18.004241 45.478407 18.553312 44.376953 19.794922 C 43.275164 21.036915 43 22.729337 43 24.660156 L 43 33 L 54.800781 33 L 53.166016 42 L 43 42 L 43 70 L 34 70 L 34 42 L 24 42 L 24 33 L 34 33 L 34 23.568359 C 34 19.049746 35.322131 15.701812 37.560547 13.453125 C 39.798963 11.204438 43.011571 10 47.015625 10 z M 47 12 A 1.0001 1.0001 0 1 0 47 14 A 1.0001 1.0001 0 1 0 47 12 z M 42.832031 12.458984 L 42.03125 12.861328 L 41.873047 13.744141 L 42.484375 14.398438 L 42.832031 14.458984 L 43.632812 14.058594 L 43.791016 13.175781 L 43.177734 12.521484 L 42.832031 12.458984 z M 39.320312 14.716797 L 38.517578 15.119141 L 38.361328 16 L 38.972656 16.65625 L 39.320312 16.716797 L 40.121094 16.316406 L 40.279297 15.433594 L 39.666016 14.779297 L 39.320312 14.716797 z M 37.296875 18.369141 L 36.494141 18.771484 L 36.337891 19.652344 L 36.949219 20.306641 L 37.296875 20.369141 L 38.097656 19.96875 L 38.255859 19.085938 L 37.642578 18.431641 L 37.296875 18.369141 z M 37 22.5625 L 36.199219 22.962891 L 36.041016 23.845703 L 36.652344 24.5 L 37 24.5625 L 37.800781 24.160156 L 37.958984 23.279297 L 37.347656 22.625 L 37 22.5625 z M 37 26.78125 L 36.199219 27.181641 L 36.041016 28.064453 L 36.652344 28.71875 L 37 28.78125 L 37.800781 28.378906 L 37.958984 27.498047 L 37.347656 26.84375 L 37 26.78125 z M 37 31 A 1.0001 1.0001 0 1 0 37 33 A 1.0001 1.0001 0 1 0 37 31 z M 37 42 A 1.0001 1.0001 0 1 0 37 44 A 1.0001 1.0001 0 1 0 37 42 z M 37 46 L 36.199219 46.402344 L 36.041016 47.283203 L 36.652344 47.9375 L 37 48 L 37.800781 47.597656 L 37.958984 46.716797 L 37.347656 46.0625 L 37 46 z M 37 50 L 36.199219 50.402344 L 36.041016 51.283203 L 36.652344 51.9375 L 37 52 L 37.800781 51.597656 L 37.958984 50.716797 L 37.347656 50.0625 L 37 50 z M 37 54 L 36.199219 54.402344 L 36.041016 55.283203 L 36.652344 55.9375 L 37 56 L 37.800781 55.597656 L 37.958984 54.716797 L 37.347656 54.0625 L 37 54 z M 37 58 L 36.199219 58.402344 L 36.041016 59.283203 L 36.652344 59.9375 L 37 60 L 37.800781 59.597656 L 37.958984 58.716797 L 37.347656 58.0625 L 37 58 z M 37 62 L 36.199219 62.402344 L 36.041016 63.283203 L 36.652344 63.9375 L 37 64 L 37.800781 63.597656 L 37.958984 62.716797 L 37.347656 62.0625 L 37 62 z M 37 66 A 1.0001 1.0001 0 1 0 37 68 A 1.0001 1.0001 0 1 0 37 66 z"/>
</svg>
